<svg width="40" height="512" fill="none" xmlns="http://www.w3.org/2000/svg"><style>.st0{fill:#666}</style><path class="st0" d="M40 256c0-10.4-7.9-18.9-18-19.9V2c0-1.1-.9-2-2-2s-2 .9-2 2v234.1c-10.1 1-18 9.5-18 19.9s7.9 18.9 18 19.9V510c0 1.1.9 2 2 2s2-.9 2-2V275.9c10.1-1 18-9.5 18-19.9zm-18 17.9h-.4c-.5 0-1 .1-1.6.1s-1.1 0-1.6-.1H18c-9-1-16-8.6-16-17.9 0-9.3 7-16.9 16-17.9h.4c.5 0 1-.1 1.6-.1s1.1 0 1.6.1h.4c9 1 16 8.6 16 17.9 0 9.3-7 16.9-16 17.9z"/><path class="st0" d="m16 247-8 9 8 9v-18zM32 256l-8-9v18l8-9z"/></svg>