<svg width="40" height="256" fill="none" xmlns="http://www.w3.org/2000/svg"><style>.st0{fill:#666}</style><path class="st0" d="M40 128c0-10.4-7.9-18.9-18-19.9V2c0-1.1-.9-2-2-2s-2 .9-2 2v106.1c-10.1 1-18 9.5-18 19.9s7.9 18.9 18 19.9V254c0 1.1.9 2 2 2s2-.9 2-2V147.9c10.1-1 18-9.5 18-19.9zm-18 17.9h-.5c-.5 0-1 .1-1.4.1h-.2c-.5 0-1 0-1.4-.1H18c-9-1-16-8.6-16-17.9s7-16.9 16-17.9h.5c.5 0 1-.1 1.5-.1h.2c.5 0 1 0 1.5.1h.5c9 1 16 8.6 16 17.9S31 144.9 22 145.9z"/><path class="st0" d="m16 119-8 9 8 9v-18zM32 128l-8-9v18l8-9z"/></svg>