<svg width="40" height="512" viewBox="0 0 40 512" fill="none" xmlns="http://www.w3.org/2000/svg">
  <style type="text/css">
    .st0{fill:#666666;}
  </style>
  <path class="st0" d="M40,256c0-10.4-7.9-18.9-18-19.9V2c0-1.1-0.9-2-2-2s-2,0.9-2,2v234.1c-10.1,1-18,9.5-18,19.9s7.9,18.9,18,19.9	V510c0,1.1,0.9,2,2,2s2-0.9,2-2V275.9C32.1,274.9,40,266.4,40,256z M22,273.9c-0.1,0-0.3,0-0.4,0c-0.5,0-1,0.1-1.6,0.1	s-1.1,0-1.6-0.1c-0.1,0-0.3,0-0.4,0c-9-1-16-8.6-16-17.9c0-9.3,7-16.9,16-17.9c0.1,0,0.3,0,0.4,0c0.5,0,1-0.1,1.6-0.1s1.1,0,1.6,0.1	c0.1,0,0.3,0,0.4,0c9,1,16,8.6,16,17.9C38,265.3,31,272.9,22,273.9z"/>
  <path class="st0" d="M16,247l-8,9l8,9V247z"/>
  <path class="st0" d="M32,256l-8-9v18L32,256z"/>
</svg>
