<svg width="40" height="256" viewBox="0 0 40 256" fill="none" xmlns="http://www.w3.org/2000/svg">
  <style type="text/css">
    .st0{fill:#666666;}
  </style>
  <path class="st0" d="M40,128c0-10.4-7.9-18.9-18-19.9V2c0-1.1-0.9-2-2-2s-2,0.9-2,2v106.1c-10.1,1-18,9.5-18,19.9s7.9,18.9,18,19.9	V254c0,1.1,0.9,2,2,2s2-0.9,2-2V147.9C32.1,146.9,40,138.4,40,128z M22,145.9L22,145.9c-0.2,0-0.3,0-0.5,0c-0.5,0-1,0.1-1.4,0.1	c0,0-0.1,0-0.1,0s-0.1,0-0.1,0c-0.5,0-1,0-1.4-0.1c-0.2,0-0.3,0-0.5,0v0c-9-1-16-8.6-16-17.9s7-16.9,16-17.9v0c0.2,0,0.3,0,0.5,0	c0.5,0,1-0.1,1.5-0.1c0,0,0,0,0.1,0s0,0,0.1,0c0.5,0,1,0,1.5,0.1c0.2,0,0.3,0,0.5,0v0c9,1,16,8.6,16,17.9S31,144.9,22,145.9z"/>
  <path class="st0" d="M16,119l-8,9l8,9V119z"/>
  <path class="st0" d="M32,128l-8-9v18L32,128z"/>
</svg>
